<?xml version="1.0" encoding="utf-8"?>
<!-- Generator: Adobe Illustrator 24.1.3, SVG Export Plug-In . SVG Version: 6.00 Build 0)  -->
<svg version="1.1" id="Camada_1" xmlns="http://www.w3.org/2000/svg" xmlns:xlink="http://www.w3.org/1999/xlink" x="0px" y="0px"
	 viewBox="0 0 272.16 299.24" style="enable-background:new 0 0 272.16 299.24;" xml:space="preserve">
<style type="text/css">
	.st0{fill:#171F39;}
	.st1{fill:#FCC03C;}
	.st2{fill-rule:evenodd;clip-rule:evenodd;fill:#FCC03C;}
	.st3{fill-rule:evenodd;clip-rule:evenodd;fill:#171F39;}
</style>
<path class="st0" d="M245.17,73.38h-22.42V36.01c0-12.38-10.04-22.42-22.42-22.42s-22.42,10.04-22.42,22.42v37.36H35.95
	c-12.38,0-22.42,10.04-22.42,22.42v134.5c0,12.38,10.04,22.42,22.42,22.42l0,0h149.44c4.13,0,7.47-3.35,7.47-7.47v-22.42h52.31
	c4.13,0,7.47-3.35,7.47-7.47V80.85C252.64,76.72,249.29,73.38,245.17,73.38z M192.86,58.43h14.94v64.19l-7.47,7.47l-7.47-7.47V58.43
	z M200.33,28.54c4.13,0,7.47,3.35,7.47,7.47v7.47h-14.94v-7.47C192.86,31.89,196.21,28.54,200.33,28.54z M177.92,237.76H35.95
	c-4.13,0-7.47-3.35-7.47-7.47c0-4.13,3.35-7.47,7.47-7.47h141.97V237.76z M237.7,207.88H35.95c-2.55,0.02-5.08,0.48-7.47,1.34V95.79
	c0-4.13,3.35-7.47,7.47-7.47h141.97v37.36c-0.01,1.99,0.77,3.9,2.17,5.31l14.94,14.94c2.91,2.93,7.64,2.95,10.57,0.04
	c0.01-0.01,0.03-0.03,0.04-0.04l14.94-14.94c1.4-1.41,2.18-3.32,2.17-5.31V88.32h14.94V207.88z"/>
<path class="st0" d="M50.89,118.21h59.78c4.13,0,7.47-3.35,7.47-7.47c0-4.13-3.35-7.47-7.47-7.47H50.89c-4.13,0-7.47,3.35-7.47,7.47
	C43.42,114.86,46.76,118.21,50.89,118.21z"/>
<path class="st0" d="M148.03,140.63c0-4.13-3.35-7.47-7.47-7.47H50.89c-4.13,0-7.47,3.35-7.47,7.47c0,4.13,3.35,7.47,7.47,7.47
	h89.67C144.68,148.1,148.03,144.75,148.03,140.63z"/>
<path class="st1" d="M215.28,177.99h-10.91l-12.78-19.05c-2.3-3.43-6.94-4.34-10.37-2.03c-0.8,0.54-1.49,1.23-2.03,2.03
	l-12.78,19.05h-18.38c-4.13,0-7.47,3.35-7.47,7.47c0,4.13,3.35,7.47,7.47,7.47h22.42c2.5-0.01,4.83-1.27,6.2-3.36l8.74-13.08
	l8.74,13.08c1.37,2.09,3.7,3.35,6.2,3.36h14.94c4.13,0,7.47-3.35,7.47-7.47C222.75,181.33,219.41,177.99,215.28,177.99z"/>
</svg>
