<?xml version="1.0" encoding="utf-8"?>
<!-- Generator: Adobe Illustrator 24.1.3, SVG Export Plug-In . SVG Version: 6.00 Build 0)  -->
<svg version="1.1" id="Camada_1" xmlns="http://www.w3.org/2000/svg" xmlns:xlink="http://www.w3.org/1999/xlink" x="0px" y="0px"
	 viewBox="0 0 272.16 299.24" style="enable-background:new 0 0 272.16 299.24;" xml:space="preserve">
<style type="text/css">
	.st0{fill:#171F39;}
	.st1{fill:#FCC03C;}
	.st2{fill-rule:evenodd;clip-rule:evenodd;fill:#FCC03C;}
	.st3{fill-rule:evenodd;clip-rule:evenodd;fill:#171F39;}
</style>
<path class="st2" d="M135.96,74.52c4.56,0,8.27-3.71,8.27-8.27s-3.71-8.27-8.27-8.27s-8.27,3.71-8.27,8.27S131.4,74.52,135.96,74.52
	L135.96,74.52z"/>
<path class="st2" d="M135.96,33.18c-18.23,0-33.07,14.83-33.07,33.07c0,13.31,11.87,29.59,13.31,31.52l16.53,20.67
	c0.79,0.98,1.97,1.55,3.23,1.55s2.44-0.57,3.23-1.55L155.6,97.9c4.54-5.18,13.43-20.27,13.43-31.65
	C169.02,48.02,154.19,33.18,135.96,33.18z M149.26,92.6l-13.31,16.63l-13.22-16.53c-4-5.36-11.58-17.79-11.58-26.46
	c0-13.68,11.12-24.8,24.8-24.8s24.8,11.12,24.8,24.8C160.76,74.79,153.24,88.04,149.26,92.6z"/>
<path class="st3" d="M181.42,260.52c2.28,0,4.13-1.85,4.13-4.13V197.5l54.87-15.67c2.19-0.63,3.46-2.92,2.84-5.11
	c-0.62-2.2-2.91-3.44-5.11-2.84l-57.87,16.53c-1.77,0.51-3,2.13-3,3.98v62C177.29,258.67,179.14,260.52,181.42,260.52L181.42,260.52
	z"/>
<path class="st3" d="M164.89,256.38c2.28,0,4.13-1.85,4.13-4.13v-57.87c0-1.77-1.13-3.35-2.81-3.91l-57.87-19.51
	c-2.17-0.74-4.51,0.43-5.24,2.6c-0.73,2.16,0.43,4.51,2.6,5.24l55.05,18.55v54.9C160.76,254.54,162.61,256.38,164.89,256.38
	L164.89,256.38z"/>
<path class="st3" d="M72.77,144.96l-41.33,12.4c-2.19,0.66-3.43,2.96-2.77,5.15c0.54,1.79,2.18,2.95,3.96,2.95
	c0.39,0,0.79-0.06,1.19-0.17l41.33-12.4c2.19-0.66,3.43-2.96,2.77-5.15C77.26,145.54,74.96,144.32,72.77,144.96L72.77,144.96z"/>
<path class="st3" d="M90.49,66.25c-2.28,0-4.13,1.85-4.13,4.13v74.4c0,1.78,1.14,3.36,2.83,3.92l74.4,24.8
	c0.43,0.14,0.87,0.21,1.31,0.21c0.86,0,1.7-0.26,2.41-0.78c1.08-0.78,1.72-2.03,1.72-3.36v-62c0-2.29-1.85-4.13-4.13-4.13
	c-2.28,0-4.13,1.85-4.13,4.13v56.26L94.62,141.8V70.38C94.62,68.1,92.77,66.25,90.49,66.25L90.49,66.25z"/>
<path class="st3" d="M251.77,70c-4.06-3.3-8.78-4.58-13.62-3.59l-57.87,16.53c-1.77,0.51-3,2.13-3,3.98v82.67
	c0,1.29,0.61,2.52,1.65,3.3c1.03,0.77,2.38,1.03,3.62,0.67l57.87-16.53c2.19-0.63,3.46-2.92,2.84-5.11
	c-0.62-2.2-2.91-3.46-5.11-2.84l-52.6,15.03V90.03l54.58-15.6c2.76-0.57,5.21,1,6.42,1.98c3.12,2.54,5.14,6.66,5.14,10.5v157.07
	c0,5.43-4.12,9.21-13.54,12.56l-56.58,16.17l-86.95-31.62v-71.51c0-1.29-0.61-2.52-1.65-3.3c-1.03-0.78-2.38-1.03-3.62-0.67
	l-57.87,16.53c-2.19,0.63-3.46,2.92-2.84,5.11c0.62,2.2,2.91,3.44,5.11,2.84l52.6-15.03v68.92c0,1.74,1.09,3.29,2.72,3.88
	l90.93,33.07c0.46,0.17,0.93,0.25,1.41,0.25c0.38,0,0.76-0.05,1.14-0.16l58.11-16.62c5.27-1.87,19.29-6.84,19.29-20.43V86.92
	C259.96,80.59,256.82,74.11,251.77,70L251.77,70z"/>
<path class="st3" d="M77.91,247.58c0.62,2.19-0.64,4.48-2.84,5.11l-41.32,11.81c-1.35,0.38-2.7,0.57-4.05,0.57
	c-3.23,0-6.39-1.09-9.19-3.21c-5.2-3.93-8.56-10.95-8.56-17.87V86.92c0-13.59,14.01-18.56,19.29-20.43l58.11-16.62
	c2.19-0.6,4.48,0.64,5.11,2.84c0.63,2.19-0.64,4.48-2.84,5.11L33.76,74.36c-9.42,3.34-13.54,7.13-13.54,12.56v157.07
	c0,4.29,2.17,8.93,5.28,11.28c1.9,1.43,3.91,1.86,5.99,1.28l41.3-11.8C75,244.12,77.29,245.38,77.91,247.58L77.91,247.58z"/>
</svg>
