<?xml version="1.0" encoding="utf-8"?>
<!-- Generator: Adobe Illustrator 24.1.3, SVG Export Plug-In . SVG Version: 6.00 Build 0)  -->
<svg version="1.1" id="Camada_1" xmlns="http://www.w3.org/2000/svg" xmlns:xlink="http://www.w3.org/1999/xlink" x="0px" y="0px"
	 viewBox="0 0 272.16 299.24" style="enable-background:new 0 0 272.16 299.24;" xml:space="preserve">
<style type="text/css">
	.st0{fill:#171F39;}
	.st1{fill:#FCC03C;}
	.st2{fill-rule:evenodd;clip-rule:evenodd;fill:#FCC03C;}
	.st3{fill-rule:evenodd;clip-rule:evenodd;fill:#171F39;}
</style>
<path class="st1" d="M267.17,73.22L243.47,56.8c3.18-2.8,5.28-6.56,6-10.79c0.83-4.89-0.29-9.8-3.15-13.85
	c-3.47-4.9-9.14-7.83-15.15-7.83c-3.86,0-7.56,1.18-10.72,3.42c-3,2.13-5.3,5.1-6.6,8.51l-24.8-17.19l-1.97,0.36L169.9,44.23
	c-0.98-1.12-2.1-2.1-3.33-2.95c-3.13-2.17-6.78-3.32-10.58-3.32c-6.08,0-11.79,2.98-15.25,7.97c-5.84,8.4-3.76,19.99,4.68,25.85
	c1.23,0.86,2.55,1.55,3.94,2.08l-17.18,24.79l0.36,1.97l31.12,21.57l2.22-1.15l0.02-2.68c0.06-7.04,5.85-12.78,12.89-12.78l0.12,0
	c7.11,0.06,12.84,5.9,12.77,13.01c-0.05,5.32-3.29,10-8.26,11.91l-2.5,0.96l-0.3,2.49l31.12,21.57l1.97-0.36l17.06-24.62
	c3.48,3.54,8.2,5.54,13.24,5.54c4.2,0,8.33-1.45,11.61-4.09c7.98-6.41,9.25-18.11,2.85-26.09c-1.85-2.3-4.2-4.11-6.87-5.31
	l8.32-11.65c0.91-1.27,0.61-3.04-0.66-3.95c-0.48-0.35-1.05-0.53-1.64-0.53c-0.91,0-1.78,0.44-2.31,1.19l-11.84,16.59l0.88,2.21
	l2.15,0.42c3.38,0.67,6.3,2.61,8.22,5.47c1.92,2.86,2.61,6.3,1.94,9.67c-1.19,6.03-6.5,10.4-12.64,10.4c-0.84,0-1.68-0.08-2.51-0.25
	c-3.51-0.69-6.6-2.83-8.48-5.88l-1.14-1.84l-2.37-0.06l-18.05,26.05l-21.68-15.03c3.35-2.46,5.76-5.95,6.88-10.02
	c1.31-4.78,0.69-9.78-1.76-14.09c-3.29-5.79-9.48-9.38-16.15-9.38c-3.2,0-6.36,0.84-9.16,2.43c-4.28,2.43-7.36,6.39-8.68,11.06
	l-21.68-15.03l18.42-26.57l-0.99-2.21l-2.31-0.29c-7.05-0.89-12.06-7.36-11.16-14.41c0.26-2.05,1.02-4.03,2.19-5.72
	c2.41-3.47,6.38-5.54,10.61-5.54c2.63,0,5.16,0.79,7.33,2.29c1.7,1.17,3.1,2.75,4.05,4.58l1.09,2.07l2.42,0.15l18.42-26.57
	l26.58,18.42l2.21-0.99l0.29-2.32c0.81-6.43,6.3-11.28,12.77-11.28c0.54,0,1.09,0.03,1.63,0.1c7.05,0.89,12.07,7.35,11.18,14.4
	c-0.53,4.18-3.07,7.84-6.79,9.8l-2.07,1.09l-0.15,2.42l28.88,20.02c0.48,0.35,1.06,0.53,1.65,0.53c0.91,0,1.77-0.44,2.3-1.18
	C268.72,75.9,268.43,74.13,267.17,73.22z"/>
<path class="st0" d="M226.41,198.2c-1.71-0.51-3.48-0.76-5.29-0.76c-1.15,0-2.3,0.11-3.43,0.32V167.8l-1.42-1.42h-30.63
	c1.35-3.93,1.34-8.17-0.05-12.15c-1.64-4.68-5.01-8.43-9.48-10.58c-2.53-1.22-5.23-1.83-8.02-1.83c-7.1,0-13.67,4.13-16.74,10.53
	c-2.13,4.44-2.41,9.45-0.83,14.03h-26.38v-32.33l-2.07-1.26l-2.07,1.08c-1.82,0.95-3.86,1.46-5.97,1.46
	c-7.09,0-12.88-5.77-12.89-12.86c-0.01-3.44,1.33-6.69,3.76-9.13c2.43-2.44,5.66-3.79,9.11-3.8l0-1.42l0.09,1.42
	c2.05,0,4.1,0.5,5.92,1.46l2.07,1.08l2.07-1.26V74.25l-1.42-1.42H87.55l-1.35,1.85l0.6,1.85c1.06,3.28,0.79,6.77-0.77,9.84
	c-1.56,3.07-4.23,5.35-7.5,6.41c-1.3,0.42-2.64,0.64-3.99,0.64c-5.6,0-10.53-3.58-12.26-8.91c-0.85-2.61-0.85-5.37,0-7.97l0.6-1.85
	l-1.35-1.85H26.35l-1.42,1.42v30.14c-1.4-0.34-2.83-0.5-4.3-0.5c-4.96,0-9.62,1.94-13.12,5.44c-3.5,3.51-5.43,8.17-5.43,13.12
	C2.1,132.68,10.42,141,20.67,141c1.44,0,2.87-0.17,4.27-0.5v64.96l2.19,1.18l2.19-1.43c2.11-1.38,4.54-2.11,7.05-2.11
	c4.37,0,8.41,2.18,10.8,5.84c3.89,5.95,2.22,13.96-3.73,17.85c-2.1,1.38-4.55,2.1-7.06,2.1s-4.96-0.73-7.06-2.1l-2.19-1.43
	l-2.19,1.18v36.23c0,1.56,1.27,2.83,2.83,2.83s2.83-1.27,2.83-2.83v-29.14c1.86,0.61,3.79,0.92,5.76,0.92
	c7.21,0,13.83-4.23,16.86-10.78c4.29-9.29,0.23-20.34-9.06-24.63c-2.46-1.14-5.08-1.71-7.78-1.71c-1.98,0-3.92,0.31-5.77,0.92v-26.3
	h25.84c-0.3,1.33-0.45,2.69-0.45,4.05c0.01,10.23,8.33,18.55,18.57,18.55c10.22-0.01,18.54-8.33,18.55-18.55
	c0-1.37-0.15-2.73-0.45-4.06h25.84v33.3l2.18,1.19l2.18-1.4c2.08-1.34,4.49-2.05,6.95-2.05c4.42,0,8.48,2.22,10.86,5.93
	c3.84,5.98,2.1,13.97-3.88,17.82c-2.08,1.34-4.49,2.04-6.97,2.04c-2.48,0-4.88-0.71-6.97-2.04l-2.18-1.4l-2.18,1.19v33.3H86.54
	l-1.28,2.02l0.95,2.02c0.8,1.69,1.23,3.58,1.23,5.46c0,7.11-5.78,12.89-12.89,12.89c-7.11,0-12.89-5.78-12.89-12.89
	c0-1.87,0.42-3.76,1.23-5.46l0.95-2.02l-1.28-2.02H41.96c-1.56,0-2.83,1.27-2.83,2.83s1.27,2.83,2.83,2.83h14.42
	c-0.27,1.26-0.4,2.54-0.4,3.83c0,10.23,8.32,18.56,18.56,18.56s18.56-8.32,18.56-18.56c0-1.29-0.13-2.57-0.4-3.83h65.29l1.16-2.23
	l-1.58-2.23c-1.99-2.81-2.77-6.23-2.18-9.62c0.58-3.39,2.45-6.36,5.26-8.35c2.19-1.55,4.76-2.37,7.44-2.37
	c4.18,0,8.12,2.04,10.54,5.45c3.15,4.45,3.15,10.44,0,14.9l-1.58,2.23l1.16,2.23h38.09l1.42-1.42v-29.96
	c1.14,0.22,2.3,0.33,3.46,0.33c0,0,0,0,0,0c8.15,0,15.47-5.47,17.79-13.29c1.41-4.75,0.88-9.77-1.49-14.12
	C235.09,202.78,231.17,199.61,226.41,198.2z M212.03,228.24v31.69h-26.46c1.4-3.9,1.46-8.13,0.13-12.12
	c-1.57-4.7-4.87-8.51-9.31-10.73c-2.6-1.3-5.39-1.96-8.28-1.96c-7.08,0-13.45,3.93-16.61,10.27c-2.26,4.53-2.55,9.82-0.87,14.54
	h-26.47v-26.27c1.83,0.59,3.72,0.89,5.65,0.89c7.27,0,13.91-4.28,16.91-10.9c2.05-4.51,2.21-9.56,0.47-14.2
	c-1.75-4.64-5.19-8.32-9.71-10.37c-2.42-1.1-5-1.66-7.66-1.66c-1.94,0-3.84,0.3-5.66,0.88v-26.27h33.61l1.17-2.21l-1.51-2.21
	c-4-5.88-2.47-13.91,3.41-17.91c2.15-1.46,4.65-2.23,7.24-2.23c4.28,0,8.27,2.11,10.68,5.65c2.99,4.4,2.99,10.09,0,14.5l-1.51,2.21
	l1.17,2.21h33.61v31.69l1.98,1.3l1.98-0.87c1.64-0.72,3.37-1.08,5.14-1.08c5.13,0,9.77,3.04,11.83,7.74
	c1.38,3.16,1.44,6.66,0.18,9.87c-1.26,3.2-3.69,5.73-6.85,7.1c-1.64,0.71-3.37,1.07-5.16,1.07c-1.78,0-3.51-0.36-5.14-1.08
	l-1.98-0.87L212.03,228.24z M62.96,170.46l1-2.04l-1.27-2.04H30.6v-32.25l-2.06-1.26l-2.06,1.05c-1.79,0.92-3.81,1.41-5.84,1.41
	c-7.11,0-12.89-5.78-12.89-12.89c0-7.11,5.78-12.89,12.91-12.89c2.02,0,4.03,0.49,5.82,1.41l2.06,1.05l2.06-1.26V78.5h25.5
	c-1.04,9.41,5.26,18.27,14.71,20.21c1.24,0.25,2.5,0.38,3.75,0.38c8.76,0,16.4-6.24,18.16-14.83c0.39-1.91,0.48-3.84,0.27-5.76h25.5
	v25.92c-1.43-0.35-2.9-0.53-4.38-0.53h-0.07c-10.21,0-18.53,8.31-18.56,18.52c-0.02,10.23,8.29,18.57,18.52,18.6h0.11
	c1.49,0,2.95-0.18,4.39-0.53l0,25.92H86.39l-1.27,2.04l1,2.04c0.86,1.74,1.32,3.69,1.31,5.64c0,7.11-5.78,12.89-12.89,12.89
	c-7.11,0-12.89-5.78-12.89-12.89C61.65,174.16,62.1,172.21,62.96,170.46z"/>
</svg>
